<svg width="19" height="21" viewBox="0 0 19 21" fill="none" xmlns="http://www.w3.org/2000/svg">
    <g opacity="0.6">
        <path fill-rule="evenodd" clip-rule="evenodd" d="M2.34325 14.6421C-0.781084 11.5177 -0.781084 6.45184 2.34325 3.32812C5.46759 0.203779 10.5329 0.203779 13.6572 3.32812C16.5366 6.20753 16.7618 10.7372 14.3328 13.8752L17.4975 17.0399C18.1761 17.7186 18.1761 18.8189 17.4975 19.4975C16.8189 20.1761 15.7186 20.1761 15.0399 19.4975L11.6492 16.1068C8.64159 17.6484 4.8618 17.1601 2.34325 14.6421ZM3.75744 4.75745C1.41419 7.10024 1.41419 10.8997 3.75744 13.2429C6.10069 15.5857 9.89965 15.5857 12.2429 13.2429C14.5857 10.8997 14.5857 7.10024 12.2429 4.75745C9.89965 2.41419 6.10069 2.41419 3.75744 4.75745Z" fill="#999999" />
    </g>
</svg>